<?xml version="1.0" standalone="no"?>
<!DOCTYPE svg PUBLIC "-//W3C//DTD SVG 20010904//EN"
 "http://www.w3.org/TR/2001/REC-SVG-20010904/DTD/svg10.dtd">
<svg version="1.0" xmlns="http://www.w3.org/2000/svg"
 width="500.000000pt" height="500.000000pt" viewBox="0 0 500.000000 500.000000"
 preserveAspectRatio="xMidYMid meet">
<metadata>
Created by potrace 1.11, written by Peter Selinger 2001-2013
</metadata>
<g transform="translate(0.000000,500.000000) scale(0.100000,-0.100000)"
fill="#000000" stroke="none">
<path d="M600 3020 c0 -14 -519 -853 -534 -862 -6 -4 14 -8 44 -7 l55 0 82
132 81 132 191 1 c166 0 191 -2 195 -15 7 -23 47 -191 52 -221 3 -13 6 -26 8
-27 2 -3 147 -5 199 -4 23 1 26 4 18 19 -7 13 -90 335 -106 412 -2 8 -20 80
-40 160 -44 171 -39 150 -55 228 l-13 62 -88 0 c-52 0 -89 -4 -89 -10z m50
-339 c22 -94 40 -176 40 -181 0 -6 -62 -10 -155 -9 -85 0 -155 2 -155 4 0 4
175 293 204 338 10 15 20 26 22 24 2 -2 22 -81 44 -176z"/>
<path d="M3953 3019 c-12 -4 -29 -19 -39 -33 -15 -24 -15 -28 0 -51 9 -14 26
-26 39 -27 107 -7 157 13 157 61 0 16 -7 35 -16 42 -19 16 -108 21 -141 8z"/>
<path d="M4837 2912 c-33 -36 -8 -102 39 -102 29 0 64 32 64 60 0 27 -35 60
-63 60 -13 0 -31 -8 -40 -18z m79 -13 c17 -19 17 -23 3 -47 -20 -37 -61 -41
-79 -8 -10 19 -11 31 -2 48 10 21 11 20 11 -15 1 -23 5 -36 11 -32 6 4 8 11 5
16 -4 5 -2 9 4 9 5 0 14 -7 19 -16 6 -12 9 -6 10 20 1 28 -3 35 -21 39 -21 4
-21 4 -1 6 11 0 29 -8 40 -20z m-26 -9 c0 -5 -4 -10 -9 -10 -6 0 -13 5 -16 10
-3 6 1 10 9 10 9 0 16 -4 16 -10z"/>
<path d="M1305 2847 c-92 -28 -172 -91 -197 -156 -13 -35 -13 -99 0 -133 16
-39 76 -79 176 -118 103 -39 136 -66 136 -111 0 -43 -63 -104 -117 -113 -72
-12 -202 21 -234 60 -18 22 -26 17 -50 -31 -26 -52 -24 -56 46 -80 110 -37
239 -39 341 -5 185 62 261 278 127 363 -21 14 -78 39 -128 57 -135 48 -163 94
-99 161 51 53 153 59 250 15 31 -14 58 -25 59 -24 2 2 12 22 23 44 l21 41 -57
18 c-72 21 -243 29 -297 12z"/>
<path d="M1945 2847 c-108 -28 -154 -65 -223 -179 -90 -151 -102 -325 -28
-422 59 -78 168 -116 318 -111 108 4 133 8 225 42 40 15 42 17 38 52 -2 20 -4
42 -4 48 -1 8 -19 1 -47 -17 -104 -66 -289 -68 -345 -3 -38 43 -52 87 -51 161
1 40 4 77 7 83 4 5 114 9 270 9 145 0 266 4 269 9 9 14 10 114 2 151 -18 78
-52 122 -121 157 -43 23 -65 27 -155 29 -64 2 -125 -2 -155 -9z m190 -73 c46
-22 71 -84 66 -169 -1 -19 -8 -20 -164 -19 -89 1 -168 2 -175 3 -17 2 38 108
75 143 58 55 136 72 198 42z"/>
<path d="M2820 2848 c-19 -5 -60 -27 -91 -48 l-57 -39 2 42 1 42 -84 0 c-67 0
-85 -3 -86 -15 -1 -8 -5 -35 -8 -60 -7 -50 -13 -82 -28 -155 -5 -27 -12 -66
-15 -85 -5 -32 -27 -158 -69 -385 -8 -44 -18 -99 -21 -123 l-7 -43 89 3 88 3
7 40 c4 22 12 72 19 112 l12 72 45 -35 c24 -19 52 -35 61 -35 192 -16 301 31
385 168 68 108 98 288 68 401 -16 56 -83 126 -136 141 -48 13 -127 13 -175 -1z
m92 -106 c40 -23 52 -70 45 -172 -7 -115 -48 -237 -96 -291 -66 -74 -162 -82
-225 -20 -27 28 -31 38 -31 89 0 89 30 254 56 305 19 38 82 87 129 101 51 15
81 12 122 -12z"/>
<path d="M4383 2840 c-118 -27 -126 -33 -119 -83 3 -23 5 -43 5 -45 1 -1 15 5
33 14 94 49 205 66 255 40 47 -24 55 -39 46 -87 -10 -53 -38 -68 -195 -111
-135 -36 -201 -68 -247 -117 -43 -47 -62 -92 -63 -151 -1 -130 109 -192 276
-155 36 7 82 30 124 62 l32 24 0 -22 c0 -23 31 -56 66 -69 30 -12 102 -5 145
13 42 17 44 20 53 69 l7 37 -27 -14 c-20 -10 -33 -11 -46 -4 -22 12 -21 29 7
177 3 15 8 45 11 67 4 22 14 82 24 134 10 52 17 99 16 105 -13 66 -18 74 -67
101 -69 37 -214 44 -336 15z m192 -332 c-17 -114 -37 -177 -67 -208 -49 -51
-107 -71 -179 -61 -3 1 -17 10 -30 22 -20 17 -24 30 -24 72 0 60 25 102 78
130 32 17 205 85 220 86 4 1 5 -18 2 -41z"/>
<path d="M3176 2843 c-1 -1 36 -79 81 -173 46 -94 83 -174 83 -178 0 -9 -18
-29 -182 -203 -70 -76 -128 -139 -128 -140 0 -2 22 -2 49 -1 49 4 51 5 171
133 67 71 125 129 129 129 3 -1 33 -59 66 -130 l60 -129 103 -3 c56 -2 102 -1
102 1 0 5 -51 111 -127 265 -29 60 -52 113 -51 116 2 6 128 145 193 214 6 6
29 31 52 56 l41 46 -50 -1 c-41 0 -54 -5 -70 -25 -11 -14 -61 -67 -110 -118
-67 -69 -93 -90 -99 -80 -5 7 -32 60 -60 118 l-50 105 -100 0 c-55 0 -101 -1
-103 -2z"/>
<path d="M3890 2825 c0 -23 -106 -628 -116 -657 -5 -17 2 -18 90 -18 94 0 96
0 92 23 -1 12 1 36 5 52 4 17 10 44 12 60 3 17 17 93 31 170 14 77 28 156 31
175 3 19 13 71 21 115 9 44 17 84 18 89 0 6 -40 10 -91 11 -88 1 -93 0 -93
-20z"/>
</g>
</svg>
